<svg width="343" height="244" viewBox="0 0 343 244" fill="none" xmlns="http://www.w3.org/2000/svg">
<path d="M150.82 127.942L133.389 112.313C133.389 112.313 90.5806 151.612 82.1861 151.484C70.7632 151.311 46.9949 150.11 33.7315 147.317C31.3679 148.761 26.4838 154.246 26.002 156.71C41.1852 168.7 80.7576 177.308 90.6769 173.955C113.292 166.309 150.82 127.94 150.82 127.94V127.942Z" fill="#F8B0A9"/>
<path d="M160.539 118.871C160.425 134.487 118.921 165.639 118.921 165.639L94.7988 137.943C94.7988 137.943 109.625 120.288 126.167 108.278C143.153 95.9461 160.664 101.736 160.539 118.873V118.871Z" fill="#263138"/>
<path d="M118.934 165.641C118.934 165.641 157.257 136.876 160.343 120.779C155.453 115.767 129.312 130.118 118.934 165.641Z" fill="black" fill-opacity="0.2"/>
<path d="M36.4841 148.094L22.0084 134.777L9.0332 151.435C9.0332 151.435 18.1443 156.732 29.7761 158.908L36.4841 148.095V148.094Z" fill="#F8B0A9"/>
<path d="M4.56978 126.938L0.0898438 139.517L8.8335 151.434L21.8087 134.776L4.56978 126.938Z" fill="#F8B0A9"/>
<path d="M139.638 102.411C139.638 102.411 119.148 151.739 135.21 243.606C161.537 243.606 209.773 243.606 222.582 243.606C223.512 230.193 216.69 164.766 231.175 101.569C231.175 101.569 216.272 98.5635 202.016 97.8758C190.865 97.3375 174.712 96.9822 164.875 97.8773C151.907 99.0575 139.638 102.412 139.638 102.412V102.411Z" fill="#263138"/>
<path d="M211.739 117.172C210.03 127.572 212.7 152.456 221.9 181.211C222.473 159.08 224.433 133.421 229.733 107.855L229.736 107.731C223.993 107.143 213.37 107.422 211.738 117.172H211.739Z" fill="black" fill-opacity="0.2"/>
<path d="M197.935 63.1389C195.298 75.0894 193.772 89.9006 201.938 97.8757C201.938 97.8757 196.838 109.999 174.633 109.999C154.341 109.999 164.796 97.8772 164.796 97.8772C178.201 94.6948 177.91 78.2154 175.816 68.9303L197.936 63.1404L197.935 63.1389Z" fill="#F8B0A9"/>
<path d="M175.783 68.9373C177.032 74.3765 177.641 82.2908 175.213 88.5581C177.182 88.2684 179.204 87.666 181.21 86.7297C188.812 83.1844 192.65 77.6109 196.709 69.3399C197.051 67.2219 197.458 65.148 197.91 63.1412L175.783 68.9389V68.9373Z" fill="black" fill-opacity="0.2"/>
<path d="M157.779 53.1707C158.538 57.4556 161.216 60.9415 164.192 62.8811C168.67 65.7982 172.613 62.1095 172.796 56.9905C172.961 52.3823 170.83 45.3114 165.649 44.4574C160.545 43.6157 156.91 48.2713 157.779 53.1707Z" fill="#B55B52"/>
<path d="M157.779 53.1707C158.538 57.4556 161.216 60.9415 164.192 62.8811C168.67 65.7982 172.613 62.1095 172.796 56.9905C172.961 52.3823 170.83 45.3114 165.649 44.4574C160.545 43.6157 156.91 48.2713 157.779 53.1707Z" fill="#F8B0A9"/>
<path d="M179.76 21.9432C171.03 22.3504 158.643 41.9847 166.292 50.4021C173.939 58.821 196.292 21.1716 179.76 21.9432Z" fill="#263138"/>
<path d="M209.431 53.205C202.53 68.0421 199.238 77.0572 188.571 82.0177C172.528 89.4804 156.698 75.6101 159.074 59.1185C161.213 44.2753 172.139 22.5077 189.242 21.9526C206.092 21.4052 216.33 38.3679 209.43 53.2035L209.431 53.205Z" fill="#F8B0A9"/>
<path d="M221.003 34.1428C229.44 39.6095 217.479 63.8019 206.578 63.1309C201.768 62.8351 202.671 51.1057 207.48 41.0079C198.706 40.6236 169.828 34.2328 170.764 20.5576C171.065 16.1599 175.589 13.4974 182.05 10.1518C188.511 6.80773 186.376 0.799683 186.376 0.799683C186.376 0.799683 191.276 5.19595 188.821 11.8856C186.366 18.5737 199.772 15.9326 207.491 15.7252C221.311 15.3531 229.227 25.6767 221.003 34.1398V34.1428Z" fill="#263138"/>
<path d="M218.994 34.14C218.994 34.14 225.792 31.5857 228.108 37.5312C226.643 36.6956 224.09 34.7439 218.994 34.14Z" fill="#263138"/>
<path d="M209.661 72.4704C206.154 75.1649 201.767 76.0188 198.22 75.5278C192.886 74.7882 192.483 69.4816 195.863 65.5535C198.905 62.0173 205.346 58.141 209.788 60.8721C214.164 63.5635 213.672 69.3901 209.661 72.4719V72.4704Z" fill="#F8B0A9"/>
<path d="M184.915 48.9477C184.428 50.1844 183.384 50.9438 182.583 50.6449C181.782 50.346 181.528 49.1033 182.014 47.8666C182.501 46.6315 183.545 45.8706 184.346 46.1695C185.146 46.4683 185.401 47.7111 184.915 48.9477Z" fill="#263138"/>
<path d="M170.926 43.789C170.44 45.0257 169.396 45.7852 168.595 45.4878C167.794 45.1889 167.54 43.946 168.026 42.7094C168.513 41.4727 169.557 40.7133 170.356 41.0122C171.157 41.3111 171.411 42.554 170.925 43.7906L170.926 43.789Z" fill="#263138"/>
<path d="M175.1 46.0441C175.1 46.0441 169.507 52.1375 165.086 54.4355C166.449 57.284 170.501 57.7231 170.501 57.7231L175.1 46.0441Z" fill="#FD5077"/>
<path d="M172.781 62.4665C172.583 62.3934 172.485 62.1692 172.565 61.9695C172.644 61.7697 172.869 61.6675 173.068 61.7407C178.444 63.7444 182.446 60.8898 182.486 60.8608C182.663 60.7342 182.905 60.7709 183.025 60.9417C183.147 61.1124 183.108 61.3549 182.932 61.483C182.757 61.6111 178.547 64.6151 172.783 62.468L172.781 62.4665Z" fill="#263138"/>
<path d="M190.893 45.9958C190.675 45.915 190.499 45.7366 190.432 45.4941C189.511 42.1912 186.806 41.3601 186.778 41.354C186.391 41.2564 186.146 40.8066 186.275 40.3933C186.405 39.9831 186.841 39.7468 187.248 39.8657C187.393 39.9069 190.784 40.9423 191.925 45.0427C192.038 45.4529 191.797 45.8845 191.385 46.008C191.217 46.0583 191.045 46.0506 190.893 45.9942V45.9958Z" fill="#263138"/>
<path d="M166.733 36.5202C166.631 36.4744 166.536 36.4043 166.46 36.3113C166.192 35.9865 166.245 35.4986 166.579 35.2211C169.917 32.4595 173.323 33.4475 173.467 33.4902C173.868 33.5939 174.095 34.0423 173.962 34.454C173.83 34.8627 173.395 35.0945 172.991 34.974C172.878 34.9405 170.213 34.1994 167.547 36.4028C167.31 36.6011 166.991 36.6346 166.733 36.5187V36.5202Z" fill="#263138"/>
<path d="M216.623 128.452L239.321 121.065C239.321 121.065 260.221 174.293 267.955 177.381C278.48 181.585 299.882 192.8 313.176 195.461C314.696 197.703 316.742 204.611 316.105 207.044C297.042 212 258.234 201.553 250.593 194.697C233.168 179.066 216.625 128.452 216.625 128.452H216.623Z" fill="#F8B0A9"/>
<path d="M231.074 101.569C246.474 103.817 262.862 157.372 262.862 157.372L229.952 175.707C229.952 175.707 216.28 150.236 209.694 131.32C202.792 111.502 214.557 99.1567 231.074 101.568V101.569Z" fill="#263138"/>
<path d="M314.836 207.396L330.384 208.142L322.122 191.196C322.122 191.196 308.496 190.995 306.27 201.468L314.836 207.398V207.396Z" fill="#F8B0A9"/>
<path d="M342.913 199.945L334.668 184.98L322.055 191.197L330.316 208.143L342.913 199.945Z" fill="#F8B0A9"/>
</svg>
