<svg width="426" height="249" viewBox="0 0 426 249" fill="none" xmlns="http://www.w3.org/2000/svg">
<path d="M271.743 115.641H162.309C157.698 115.641 153.961 111.904 153.961 107.293V102.897H280.091V107.293C280.091 111.904 276.354 115.641 271.743 115.641Z" fill="#C6DBF4"/>
<path d="M230.227 126.792H204.342V115.641H230.227V126.792Z" fill="#83AAD6"/>
<path d="M280.091 103.108H153.961V37.1169C153.961 32.8553 157.416 29.4003 161.678 29.4003H272.375C276.637 29.4003 280.091 32.8553 280.091 37.1169V103.108Z" fill="#344B7E"/>
<path d="M275.735 98.5546H159.064V34.7018H275.735V98.5546Z" fill="#DAE6F4"/>
<path d="M219.84 108.699C219.84 110.273 218.565 111.549 216.991 111.549C215.418 111.549 214.143 110.273 214.143 108.699C214.143 107.126 215.418 105.85 216.991 105.85C218.565 105.85 219.84 107.126 219.84 108.699Z" fill="white"/>
<path d="M202.948 92.1362H169.179C167.883 92.1362 166.832 91.0856 166.832 89.7896V66.6466C166.832 65.3506 167.883 64.3 169.179 64.3H202.948C204.244 64.3 205.294 65.3506 205.294 66.6466V89.7896C205.294 91.0856 204.243 92.1362 202.948 92.1362Z" fill="white"/>
<path d="M200.069 83.9936H171.98C171.541 83.9936 171.186 83.6373 171.186 83.1988V83.1229C171.186 82.6837 171.541 82.3282 171.98 82.3282H200.069C200.508 82.3282 200.864 82.6843 200.864 83.1229V83.1988C200.864 83.638 200.508 83.9936 200.069 83.9936Z" fill="#DAE6F4"/>
<path d="M187.99 87.9042H171.98C171.541 87.9042 171.186 87.5481 171.186 87.1096V87.0336C171.186 86.5944 171.541 86.2388 171.98 86.2388H187.99C188.429 86.2388 188.785 86.5944 188.785 87.0336V87.1096C188.785 87.5488 188.429 87.9042 187.99 87.9042Z" fill="#DAE6F4"/>
<path d="M180.809 72.7997C180.809 75.72 178.442 78.0868 175.522 78.0868C172.601 78.0868 170.234 75.7193 170.234 72.7997C170.234 69.8793 172.601 67.5125 175.522 67.5125C178.442 67.5125 180.809 69.88 180.809 72.7997Z" fill="#C6DBF4"/>
<path d="M241.267 130.526H192.764C192.764 128.464 194.435 126.793 196.496 126.793H237.534C239.596 126.793 241.267 128.464 241.267 130.526Z" fill="#C6DBF4"/>
<path d="M197.322 49.839H167.967C167.527 49.839 167.172 49.4834 167.172 49.0442V48.9682C167.172 48.529 167.528 48.1734 167.967 48.1734H197.322C197.761 48.1734 198.117 48.5297 198.117 48.9682V49.0442C198.117 49.4834 197.76 49.839 197.322 49.839Z" fill="white"/>
<path d="M197.322 60.323H167.967C167.527 60.323 167.172 59.9668 167.172 59.5283V59.4523C167.172 59.0131 167.528 58.6575 167.967 58.6575H197.322C197.761 58.6575 198.117 59.0138 198.117 59.4523V59.5283C198.117 59.9675 197.76 60.323 197.322 60.323Z" fill="white"/>
<path d="M204.305 55.0597H167.967C167.527 55.0597 167.172 54.7036 167.172 54.2651V54.1891C167.172 53.7499 167.528 53.3943 167.967 53.3943H204.305C204.744 53.3943 205.1 53.7506 205.1 54.1891V54.2651C205.1 54.7043 204.744 55.0597 204.305 55.0597Z" fill="white"/>
<path d="M182.602 121.217H164.922V110.79H182.602V121.217Z" fill="white"/>
<path d="M176.686 112.741H170.234V108.841H176.686V112.741Z" fill="#344B7E"/>
<path d="M262.659 92.136H216.641C215.297 92.136 214.207 91.0457 214.207 89.7009V45.8045C214.207 44.4597 215.297 43.3694 216.641 43.3694H262.659C264.004 43.3694 265.094 44.459 265.094 45.8045V89.7009C265.094 91.0457 264.004 92.136 262.659 92.136Z" fill="white"/>
<path d="M256.7 84.9707H223.396V51.6668H256.7V84.9707Z" fill="#90B1F9"/>
<path d="M241.238 74.5383L247.184 67.4274L256.667 75.9947V84.9724H241.238V74.5383Z" fill="white"/>
<path d="M223.396 74.4101L230.11 64.1042L251.487 84.9732H223.396V74.4101Z" fill="#344B7E"/>
<path d="M131.047 26.2431C131.047 30.3681 127.703 33.7117 123.579 33.7117C119.455 33.7117 116.111 30.3681 116.111 26.2431C116.111 22.1188 119.455 18.7754 123.579 18.7754C127.703 18.7754 131.047 22.1188 131.047 26.2431Z" fill="white"/>
<path d="M55.467 63.6524C55.071 63.6524 54.6751 63.4975 54.3781 63.1915C53.7939 62.5898 53.8084 61.6292 54.4101 61.0457L101.872 14.9917C102.127 14.7442 102.46 14.5944 102.814 14.5672L112.127 13.8685C112.971 13.8134 113.69 14.4318 113.754 15.2677C113.816 16.1036 113.19 16.8321 112.354 16.8948L103.59 17.553L56.5232 63.2236C56.229 63.5101 55.8476 63.6524 55.4663 63.6524H55.467Z" fill="#162844"/>
<path d="M76.8101 125.687C76.1555 125.687 75.5516 125.261 75.3557 124.601L56.9359 62.5659C56.6982 61.7614 57.1555 60.9172 57.9586 60.678C58.7596 60.4403 59.6067 60.8969 59.8458 61.7008L78.265 123.736C78.5027 124.54 78.0454 125.385 77.2423 125.623C77.0979 125.666 76.9523 125.686 76.8094 125.686L76.8101 125.687Z" fill="#162844"/>
<path d="M122.787 15.9884L114.201 20.9451L106.766 8.06755C105.398 5.69657 106.21 2.66531 108.58 1.29681C110.951 -0.0716789 113.983 0.740597 115.351 3.11089L122.786 15.9884H122.787Z" fill="#1F367C"/>
<path d="M59.1953 130.515C59.1953 130.515 64.0376 122.96 77.0163 122.96C89.9951 122.96 94.4505 130.515 94.4505 130.515H59.1953Z" fill="white"/>
<path d="M61.947 58.828H55.041V65.338H61.164C61.4164 65.3994 61.6758 65.4412 61.947 65.4412C63.7728 65.4412 65.2535 63.9611 65.2535 62.1346C65.2535 60.308 63.7728 58.828 61.947 58.828Z" fill="#1F367C"/>
<path d="M58.6502 62.1346C58.6502 63.9604 57.1702 65.4412 55.3436 65.4412C53.5171 65.4412 52.0371 63.9604 52.0371 62.1346C52.0371 60.308 53.5178 58.828 55.3436 58.828C57.1702 58.828 58.6502 60.3087 58.6502 62.1346Z" fill="white"/>
<path d="M123.102 10.2999C114.088 10.2999 106.781 17.6068 106.781 26.6209C106.781 29.415 107.486 32.0432 108.723 34.3431L137.481 18.8985C134.727 13.7801 129.322 10.2993 123.102 10.2993V10.2999Z" fill="white"/>
<path d="M108.736 34.3424L106.303 130.389L276.703 129.881L137.494 18.8986L108.736 34.3424Z" fill="#FFEB85" fill-opacity="0.670588"/>
<path d="M323.207 98.0466H353.365L348.897 130.446H327.899L323.207 98.0466Z" fill="white"/>
<path d="M327.156 123.012C325.26 123.012 320.872 122.733 317.877 120.364C315.904 118.804 314.902 116.688 314.902 114.072C314.902 111.18 315.933 108.908 317.966 107.317C321.25 104.746 325.892 105.084 326.089 105.098L325.723 108.618C325.691 108.622 322.648 108.425 320.727 109.94C319.596 110.834 319.024 112.225 319.024 114.072C319.024 115.684 319.563 116.892 320.67 117.765C323.147 119.722 327.696 119.464 327.739 119.464L328.078 122.984C328.021 122.988 327.687 123.012 327.156 123.012V123.012Z" fill="white"/>
<path d="M58.5533 234.673L54.4219 233.805L73.2393 144.209L77.3706 145.076L58.5533 234.673Z" fill="#9B9B9B"/>
<path d="M96.5256 234.673L77.709 145.076L81.8402 144.209L100.657 233.805L96.5256 234.673Z" fill="#9B9B9B"/>
<path d="M96.5675 224.82H58.9141V220.6H96.5675V224.82Z" fill="#9B9B9B"/>
<path d="M102.743 147.501H53.6094V141.78H102.743V147.501Z" fill="#303131"/>
<path d="M325.569 234.673L321.438 233.805L340.255 144.209L344.387 145.076L325.569 234.673Z" fill="#9B9B9B"/>
<path d="M363.539 234.673L344.723 145.076L348.855 144.209L367.671 233.805L363.539 234.673Z" fill="#9B9B9B"/>
<path d="M363.58 224.82H325.928V220.6H363.58V224.82Z" fill="#9B9B9B"/>
<path d="M369.687 147.501H320.553V141.78H369.687V147.501Z" fill="#303131"/>
<path d="M383.947 141.779H40.1992V130.7H383.947V141.779Z" fill="#484848"/>
<path d="M424.287 235.648H1.84513C1.06851 235.648 0.4375 235.017 0.4375 234.24C0.4375 233.464 1.06851 232.833 1.84513 232.833H424.287C425.064 232.833 425.695 233.464 425.695 234.24C425.695 235.017 425.064 235.648 424.287 235.648Z" fill="#D6D6D8"/>
<path fill-rule="evenodd" clip-rule="evenodd" d="M250.494 248.243C248.209 248.243 246.344 246.379 246.344 244.093C246.344 241.808 248.208 239.943 250.494 239.943C252.78 239.943 254.644 241.807 254.644 244.093C254.644 246.379 252.78 248.243 250.494 248.243Z" fill="#162844"/>
<path fill-rule="evenodd" clip-rule="evenodd" d="M207.33 248.243C205.044 248.243 203.18 246.379 203.18 244.093C203.18 241.808 205.044 239.943 207.33 239.943C209.615 239.943 211.479 241.807 211.479 244.093C211.479 246.379 209.615 248.243 207.33 248.243Z" fill="#162844"/>
<path fill-rule="evenodd" clip-rule="evenodd" d="M251.762 233.526H244.434V205.111H251.762V233.526Z" fill="#B1B3B3"/>
<path fill-rule="evenodd" clip-rule="evenodd" d="M251.436 230.004H244.865C243.949 230.004 243.207 230.746 243.207 231.662V234.657L209.703 236.605C207.266 236.747 205.363 238.764 205.363 241.205H243.207H246.152H250.148H290.937C290.937 238.764 289.034 236.747 286.596 236.605L253.092 234.657V231.661C253.092 230.746 252.351 230.003 251.435 230.003L251.436 230.004Z" fill="#162844"/>
<path fill-rule="evenodd" clip-rule="evenodd" d="M252.4 215.605H243.832C242.927 215.605 242.193 214.871 242.193 213.966V204.405H254.039V213.966C254.039 214.871 253.304 215.605 252.4 215.605Z" fill="#162844"/>
<path fill-rule="evenodd" clip-rule="evenodd" d="M255.087 206.572H241.134C240.098 206.572 239.258 205.732 239.258 204.696V191.172H256.963V204.696C256.963 205.733 256.123 206.572 255.087 206.572Z" fill="#162844"/>
<path fill-rule="evenodd" clip-rule="evenodd" d="M263.881 191.173H232.358C227.939 191.173 224.357 187.591 224.357 183.172H271.882C271.882 187.591 268.3 191.173 263.881 191.173Z" fill="#162844"/>
<path d="M292.085 244.092C292.085 246.378 290.221 248.242 287.935 248.242C285.649 248.242 283.785 246.378 283.785 244.092H292.085Z" fill="#162844"/>
<path d="M287.935 239.943C290.221 239.943 292.085 241.807 292.085 244.093H283.785C283.785 241.808 285.649 239.943 287.935 239.943Z" fill="#162844"/>
<path d="M250.493 239.943C252.779 239.943 254.643 241.807 254.643 244.093H246.344C246.344 241.808 248.208 239.943 250.493 239.943Z" fill="#162844"/>
<path d="M207.33 239.943C209.615 239.943 211.479 241.807 211.479 244.093H203.18C203.18 241.808 205.044 239.943 207.33 239.943Z" fill="#162844"/>
<path d="M254.041 205.701H255.223C256.188 205.701 256.971 204.918 256.971 203.952V190.3H254.041V205.701Z" fill="#264662"/>
<path d="M251.11 214.732H252.292C253.257 214.732 254.04 213.949 254.04 212.984V205.699H251.109V214.732H251.11Z" fill="#264662"/>
<path d="M251.451 61.015H249.256C246.992 61.015 244.823 61.9199 243.23 63.5289C242.096 64.6743 241.312 66.1188 240.969 67.693L224.843 141.826L227.825 165.684H200.283C195.455 165.684 191.541 169.598 191.541 174.426C191.541 179.255 195.455 183.169 200.283 183.169H241.371L251.451 61.0157V61.015Z" fill="#A3720F"/>
<path d="M299.523 183.169H241.391C239.436 183.169 237.759 181.776 237.399 179.856L231.702 147.96C231.141 144.974 231.175 141.907 231.8 138.934L247.496 64.2406C247.891 62.3604 249.549 61.015 251.47 61.015H299.863C302.253 61.015 304.127 63.0687 303.907 65.4488L297.198 138.136C297.166 138.483 297.178 138.833 297.236 139.177L303.528 178.439C303.941 180.914 302.032 183.168 299.523 183.168L299.523 183.169Z" fill="#FFAE0A"/>
</svg>
