<svg width="24" height="24" viewBox="0 0 24 24" fill="none" xmlns="http://www.w3.org/2000/svg">
<path d="M21.7461 9.42119C21.4024 9.01836 21.0774 8.63768 20.9304 8.28386C20.772 7.90184 20.7283 7.3842 20.6813 6.83636C20.6041 5.92461 20.5162 4.89135 19.8139 4.18976C19.1123 3.48749 18.079 3.39953 17.1679 3.32233C16.6194 3.27533 16.1018 3.23169 15.7198 3.07324C15.3659 2.92621 14.9853 2.60126 14.5824 2.25751C13.8741 1.65326 13.0718 0.967773 12.0359 0.967773C10.9999 0.967773 10.1976 1.65326 9.48931 2.25751C9.08647 2.60126 8.7058 2.92621 8.35198 3.07324C7.96996 3.23169 7.45232 3.27533 6.90447 3.32233C5.99273 3.39954 4.95947 3.48749 4.25787 4.18976C3.5556 4.89136 3.46765 5.92462 3.39044 6.8357C3.34344 7.38422 3.2998 7.90186 3.14136 8.28387C2.99432 8.63769 2.66937 9.01837 2.32562 9.4212C1.72137 10.1295 1.03589 10.9318 1.03589 11.9678C1.03589 13.0037 1.72137 13.806 2.32562 14.5143C2.66937 14.9172 2.99432 15.2978 3.14136 15.6517C3.2998 16.0337 3.34345 16.5513 3.39044 17.0992C3.46765 18.0109 3.5556 19.0442 4.25787 19.7458C4.95947 20.448 5.99274 20.536 6.90381 20.6132C7.45234 20.6602 7.96997 20.7038 8.35199 20.8623C8.70581 21.0093 9.08649 21.3343 9.48932 21.678C10.1976 22.2823 10.9999 22.9678 12.0359 22.9678C13.0718 22.9678 13.8741 22.2823 14.5825 21.678C14.9853 21.3343 15.366 21.0093 15.7198 20.8623C16.1018 20.7038 16.6194 20.6602 17.1673 20.6132C18.079 20.536 19.1123 20.448 19.8139 19.7458C20.5162 19.0442 20.6041 18.0109 20.6813 17.0998C20.7283 16.5513 20.772 16.0337 20.9304 15.6517C21.0774 15.2978 21.4024 14.9172 21.7461 14.5143C22.3504 13.806 23.0359 13.0037 23.0359 11.9678C23.0359 10.9318 22.3504 10.1295 21.7461 9.42119ZM20.7001 13.6214C20.302 14.088 19.8904 14.5701 19.6601 15.1253C19.4205 15.7047 19.3647 16.3546 19.3117 16.983C19.2486 17.7256 19.1888 18.4272 18.8417 18.7736C18.4953 19.1207 17.7937 19.1798 17.0511 19.2436C16.4227 19.2966 15.7728 19.3523 15.1934 19.592C14.6382 19.8223 14.1561 20.2339 13.6895 20.632C13.1108 21.1261 12.5643 21.5928 12.0359 21.5928C11.5075 21.5928 10.961 21.1261 10.3822 20.632C9.91563 20.2339 9.43357 19.8223 8.87833 19.592C8.29893 19.3523 7.64902 19.2966 7.02061 19.2436C6.27805 19.1805 5.57646 19.1207 5.23002 18.7736C4.88291 18.4272 4.82383 17.7256 4.76005 16.983C4.70701 16.3546 4.65128 15.7047 4.4116 15.1253C4.18131 14.5701 3.76975 14.088 3.37162 13.6214C2.87748 13.0426 2.41086 12.4961 2.41086 11.9678C2.41086 11.4394 2.87748 10.8929 3.37162 10.3141C3.76975 9.84751 4.18131 9.36546 4.4116 8.81022C4.65128 8.23081 4.70701 7.58091 4.76005 6.9525C4.82316 6.20995 4.88291 5.50835 5.23002 5.16191C5.57645 4.8148 6.27804 4.75572 7.02061 4.69194C7.64903 4.6389 8.29893 4.58317 8.87833 4.34349C9.43357 4.1132 9.91563 3.70164 10.3822 3.30351C10.961 2.80937 11.5075 2.34275 12.0359 2.34275C12.5642 2.34275 13.1108 2.80937 13.6895 3.30351C14.1561 3.70164 14.6382 4.1132 15.1934 4.34349C15.7728 4.58317 16.4227 4.6389 17.0511 4.69194C17.7937 4.75505 18.4953 4.8148 18.8417 5.16191C19.1888 5.50834 19.2479 6.20994 19.3117 6.9525C19.3647 7.58092 19.4205 8.23082 19.6601 8.81022C19.8904 9.36546 20.302 9.84751 20.7001 10.3141C21.1943 10.8929 21.6609 11.4394 21.6609 11.9678C21.6609 12.4961 21.1943 13.0426 20.7001 13.6214Z" fill="#012C3D" stroke="#012C3D" stroke-width="0.2"/>
<path d="M9.59253 12.4147L10.9932 13.8153L14.6879 10.1205" stroke="#012C3D" stroke-width="1.5" stroke-linecap="round" stroke-linejoin="round"/>
<circle cx="12.0359" cy="11.9678" r="5.98779" stroke="#012C3D" stroke-width="1.5"/>
</svg>
