<svg width="38" height="38" viewBox="0 0 38 38" fill="none" xmlns="http://www.w3.org/2000/svg">
<path fill-rule="evenodd" clip-rule="evenodd" d="M16.2727 24.1228C16.3231 23.575 16.4997 23.0637 16.7732 22.6183C14.2991 21.8431 12.7579 19.7094 12.7579 17.2089C12.7579 16.2458 13.0644 15.3214 13.6327 14.5027C13.6153 11.9634 13.967 10.6801 15.275 10.6801C15.9807 10.6801 16.8284 11.0481 17.8973 11.7638C18.6327 11.5817 19.406 11.4878 20.1953 11.4878C20.9853 11.4878 21.7592 11.5818 22.4951 11.7642C23.5633 11.0482 24.4111 10.6801 25.1173 10.6801C26.426 10.6801 26.7778 11.9645 26.7599 14.5055C27.327 15.3235 27.6329 16.2469 27.6329 17.2089C27.6329 19.7089 26.091 21.8439 23.6179 22.6189C23.9445 23.151 24.1329 23.7771 24.1329 24.4473V26.4301C24.1329 27.3966 23.3493 28.1801 22.3828 28.1801H18.0078C17.0414 28.1801 16.2579 27.3966 16.2579 26.4301V25.9558C14.7266 26.3081 12.8097 25.9626 11.9042 24.4487C11.8693 24.3868 11.7705 24.2536 11.6231 24.1194C11.4162 23.9309 11.1914 23.8197 10.9479 23.803C10.4658 23.7699 10.1018 23.3523 10.1349 22.8701C10.168 22.388 10.5856 22.024 11.0678 22.0571C11.7441 22.1035 12.3233 22.3901 12.8014 22.8254C13.1043 23.1013 13.3096 23.3781 13.4174 23.5699C13.682 24.0122 14.1743 24.2476 14.8663 24.2915C15.3811 24.3242 15.9668 24.2333 16.2727 24.1228ZM21.9497 21.1638C24.381 20.9814 25.8829 19.2885 25.8829 17.2089C25.8829 16.5491 25.6469 15.9078 25.1923 15.327L25.0012 15.0827L25.0066 14.7727C25.024 13.7617 24.9739 13.0181 24.8667 12.5645C24.8596 12.5345 24.8525 12.5067 24.8454 12.4812C24.4765 12.5966 23.8991 12.9086 23.1622 13.4296L22.8144 13.6755L22.4063 13.5535C21.7128 13.3462 20.9654 13.2377 20.1954 13.2377C19.426 13.2377 18.6791 13.346 17.9861 13.553L17.5784 13.6749L17.2308 13.4294C16.4936 12.9087 15.9161 12.5969 15.5472 12.4813C15.5403 12.5067 15.5332 12.5342 15.5262 12.564C15.419 13.0172 15.3689 13.7602 15.3861 14.7705L15.3913 15.0808L15.1999 15.325C14.7445 15.9064 14.5079 16.5484 14.5079 17.2089C14.5079 19.2895 16.0098 20.9813 18.4444 21.1637C18.6908 21.1728 18.8856 21.3754 18.8852 21.6219L18.8833 22.7185C18.883 22.8515 18.8163 22.9755 18.7054 23.049C18.2818 23.3684 18.0079 23.8758 18.0079 24.4473V26.08C18.0079 26.2733 18.1646 26.43 18.3579 26.43H22.0329C22.2262 26.43 22.3829 26.2733 22.3829 26.08V24.4473C22.3829 23.8736 22.1069 23.3645 21.6804 23.0453C21.5727 22.9742 21.508 22.8537 21.5081 22.7246L21.509 21.6207C21.5092 21.3747 21.7039 21.1729 21.9497 21.1638Z" fill="#0C0A3D"/>
<path d="M18.8828 36.9301C28.5478 36.9301 36.3828 29.0951 36.3828 19.4301C36.3828 9.76513 28.5478 1.93011 18.8828 1.93011C9.21781 1.93011 1.3828 9.76513 1.3828 19.4301C1.3828 29.0951 9.21781 36.9301 18.8828 36.9301Z" stroke="#0C0A3D" stroke-width="2"/>
</svg>
