<svg width="37" height="37" viewBox="0 0 37 37" fill="none" xmlns="http://www.w3.org/2000/svg">
<path fill-rule="evenodd" clip-rule="evenodd" d="M23.2174 11.4838L20.8343 16.2501H16.6658L14.2827 11.4838C13.9283 10.7751 12.8896 10.8647 12.6619 11.6237L10.0369 20.3737C9.93314 20.7198 10.0527 21.094 10.3378 21.3158L18.2129 27.4408C18.5288 27.6866 18.9713 27.6866 19.2873 27.4408L27.1623 21.3158C27.4474 21.094 27.567 20.7198 27.4632 20.3737L24.8382 11.6237C24.6105 10.8647 23.5718 10.7751 23.2174 11.4838ZM22.1577 17.5165L23.796 14.2399L25.6148 20.3025L18.7501 25.6416L11.8854 20.3025L13.7042 14.2399L15.3425 17.5165C15.4907 17.8129 15.7937 18.0001 16.1251 18.0001H21.3751C21.7065 18.0001 22.0095 17.8129 22.1577 17.5165Z" fill="#0C0A3D"/>
<path d="M18.5 36C28.165 36 36 28.165 36 18.5C36 8.83502 28.165 1 18.5 1C8.83502 1 1 8.83502 1 18.5C1 28.165 8.83502 36 18.5 36Z" stroke="#0C0A3D" stroke-width="2"/>
</svg>
