<svg width="38" height="38" viewBox="0 0 38 38" fill="none" xmlns="http://www.w3.org/2000/svg">
<path fill-rule="evenodd" clip-rule="evenodd" d="M23.2578 15.9301C22.7746 15.9301 22.3828 15.5383 22.3828 15.0551C22.3828 14.5718 22.7746 14.1801 23.2578 14.1801C23.7411 14.1801 24.1328 14.5718 24.1328 15.0551C24.1328 15.5383 23.7411 15.9301 23.2578 15.9301ZM15.3828 12.4301C13.4498 12.4301 11.8828 13.9971 11.8828 15.9301V22.9301C11.8828 24.863 13.4498 26.4301 15.3828 26.4301H22.3828C24.3158 26.4301 25.8828 24.863 25.8828 22.9301V15.9301C25.8828 13.9971 24.3158 12.4301 22.3828 12.4301H15.3828ZM15.3828 10.6801H22.3828C25.2823 10.6801 27.6328 13.0306 27.6328 15.9301V22.9301C27.6328 25.8296 25.2823 28.1801 22.3828 28.1801H15.3828C12.4833 28.1801 10.1328 25.8296 10.1328 22.9301V15.9301C10.1328 13.0306 12.4833 10.6801 15.3828 10.6801ZM17.2469 23.4887C16.7988 23.3079 16.582 22.7981 16.7628 22.3499C16.9436 21.9017 17.4534 21.685 17.9016 21.8658C18.2102 21.9902 18.5413 22.0551 18.8828 22.0551C20.3326 22.0551 21.5078 20.8798 21.5078 19.4301C21.5078 17.9803 20.3326 16.8051 18.8828 16.8051C17.4331 16.8051 16.2578 17.9803 16.2578 19.4301C16.2578 19.7726 16.323 20.1047 16.4482 20.4141C16.6295 20.862 16.4134 21.3721 15.9654 21.5534C15.5175 21.7347 15.0074 21.5186 14.8261 21.0706C14.6168 20.5535 14.5078 19.9986 14.5078 19.4301C14.5078 17.0138 16.4666 15.0551 18.8828 15.0551C21.2991 15.0551 23.2578 17.0138 23.2578 19.4301C23.2578 21.8463 21.2991 23.8051 18.8828 23.8051C18.316 23.8051 17.7627 23.6968 17.2469 23.4887Z" fill="#0C0A3D"/>
<path d="M18.8828 36.9301C28.5478 36.9301 36.3828 29.0951 36.3828 19.4301C36.3828 9.76512 28.5478 1.9301 18.8828 1.9301C9.21781 1.9301 1.3828 9.76512 1.3828 19.4301C1.3828 29.0951 9.21781 36.9301 18.8828 36.9301Z" stroke="#0C0A3D" stroke-width="2"/>
</svg>
