<svg width="38" height="38" viewBox="0 0 38 38" fill="none" xmlns="http://www.w3.org/2000/svg">
<path d="M8.67902 12.7994L10.9514 14.2939V23.8025L8.5784 26.144C8.1619 26.5561 8.45502 27.2675 9.03952 27.2675H14.1749C14.7585 27.2675 15.0534 26.557 14.636 26.144L12.263 23.8025V16.8795C14.6964 22.056 17.0685 27.0934 17.0117 26.9787C17.2514 27.4652 18.01 27.4784 18.2156 26.9131L18.2165 26.9114C18.2165 26.9114 18.2174 26.9105 18.2174 26.9096C18.7861 25.3407 20.0059 21.9764 19.928 22.1899C19.9718 22.0682 22.0464 16.1471 22.0788 16.0552V24.6066L20.5554 26.151C20.1468 26.5657 20.4416 27.2684 21.0226 27.2684H28.727C29.3063 27.2684 29.602 26.5692 29.196 26.1536L27.7321 24.6547L27.6735 14.2134L29.1881 12.7189C29.6046 12.3067 29.3115 11.5954 28.727 11.5954C28.1128 11.5954 30.9539 11.5945 22.7158 11.5989C21.8775 11.6234 22.161 12.3767 19.228 20.1494L15.6318 11.9865C15.5268 11.7485 15.2905 11.5945 15.0307 11.5945H9.03952C8.39027 11.5954 8.13565 12.4432 8.67902 12.7994ZM10.6381 25.9559L11.6068 24.9995L12.5754 25.9559H10.6381ZM23.3913 12.9079H27.1284C26.7093 13.376 26.3575 13.5125 26.3593 13.9447L26.4214 24.9269C26.4231 25.3434 26.7635 25.4895 27.1686 25.955H22.5924C23.0448 25.4414 23.3921 25.3005 23.3921 24.8752V12.9079H23.3913ZM14.6028 12.9079L18.5875 21.951L17.5148 24.9671C12.1108 13.4906 12.3006 13.3104 11.2314 12.9079H14.6028Z" fill="#0C0A3D"/>
<path d="M18.8828 36.9301C28.5478 36.9301 36.3828 29.0951 36.3828 19.4301C36.3828 9.76513 28.5478 1.93011 18.8828 1.93011C9.21781 1.93011 1.3828 9.76513 1.3828 19.4301C1.3828 29.0951 9.21781 36.9301 18.8828 36.9301Z" stroke="#0C0A3D" stroke-width="2"/>
</svg>
