<svg width="18" height="20" viewBox="0 0 18 20" fill="none" xmlns="http://www.w3.org/2000/svg">
<path fill-rule="evenodd" clip-rule="evenodd" d="M15.1113 8.46874C15.1113 4.91696 13.1527 2.4518 10.6185 1.71174C10.5268 1.47431 10.3817 1.25358 10.1846 1.06838C9.51109 0.435541 8.46156 0.435541 7.78803 1.06838C7.59134 1.25318 7.44651 1.47334 7.35472 1.71017C4.81726 2.44701 2.86133 4.90678 2.86133 8.46874C2.86133 10.7734 2.39669 12.0648 1.53654 13.0007C1.39273 13.1571 1.00309 13.5156 0.739154 13.7584L0.739121 13.7584L0.739069 13.7584C0.614238 13.8733 0.517541 13.9622 0.488297 13.9917L0.236328 14.2472V17.2311H5.56331C5.74343 18.1604 6.24766 18.7821 7.1595 19.3385C8.2812 20.023 9.69145 20.023 10.8132 19.3385C11.6179 18.8475 12.1575 18.0928 12.3764 17.2311H17.7363V14.2472L17.4844 13.9917C17.4578 13.9648 17.365 13.8792 17.2437 13.7673L17.2437 13.7672L17.2435 13.7671C16.9804 13.5243 16.5833 13.158 16.4373 12.9986C15.5766 12.0583 15.1113 10.7653 15.1113 8.46874ZM10.506 17.2311H7.39261C7.51624 17.461 7.72695 17.6347 8.07109 17.8447C8.63306 18.1876 9.33959 18.1876 9.90156 17.8447C10.1618 17.6859 10.3651 17.4758 10.506 17.2311ZM15.1465 14.1802C15.3306 14.3814 15.7252 14.749 15.9863 14.9892V15.4811H1.98633V14.9896C2.24539 14.7522 2.64121 14.3848 2.825 14.1849C3.99377 12.9132 4.61133 11.1968 4.61133 8.46874C4.61133 5.16115 6.6525 3.22957 8.98633 3.22957C11.3136 3.22957 13.3613 5.17112 13.3613 8.46874C13.3613 11.1881 13.9791 12.905 15.1465 14.1802Z" fill="black"/>
</svg>
