<svg width="25" height="25" viewBox="0 0 25 25" fill="none" xmlns="http://www.w3.org/2000/svg">
<path d="M22.517 17.3267V20.3267C22.5182 20.6052 22.4611 20.8809 22.3495 21.1361C22.238 21.3912 22.0743 21.6203 21.8691 21.8086C21.6639 21.9969 21.4216 22.1402 21.1578 22.2294C20.8939 22.3186 20.6144 22.3518 20.337 22.3267C17.2599 21.9924 14.304 20.9409 11.707 19.2567C9.29085 17.7214 7.24236 15.6729 5.70702 13.2567C4.017 10.6479 2.96527 7.67771 2.63702 4.58671C2.61203 4.31018 2.6449 4.03147 2.73352 3.76834C2.82215 3.5052 2.96459 3.2634 3.15179 3.05833C3.33898 2.85327 3.56683 2.68942 3.82081 2.57724C4.0748 2.46505 4.34936 2.40697 4.62702 2.40671H7.62702C8.11233 2.40194 8.58281 2.57379 8.95078 2.89025C9.31875 3.2067 9.5591 3.64616 9.62702 4.12671C9.75365 5.08678 9.98847 6.02944 10.327 6.93671C10.4616 7.29464 10.4907 7.68363 10.4109 8.05759C10.3312 8.43156 10.1459 8.77482 9.87702 9.04671L8.60702 10.3167C10.0306 12.8203 12.1035 14.8932 14.607 16.3167L15.877 15.0467C16.1489 14.7779 16.4922 14.5926 16.8661 14.5128C17.2401 14.4331 17.6291 14.4622 17.987 14.5967C18.8943 14.9353 19.837 15.1701 20.797 15.2967C21.2828 15.3652 21.7264 15.6099 22.0436 15.9842C22.3607 16.3585 22.5292 16.8363 22.517 17.3267Z" stroke="#00BAD8" stroke-width="2" stroke-linecap="round" stroke-linejoin="round"/>
</svg>
