<svg width="108" height="108" viewBox="0 0 108 108" fill="none" xmlns="http://www.w3.org/2000/svg">
<g filter="url(#filter0_d)">
<path d="M93.2423 61.3448C89.2228 82.7831 68.5839 96.9023 47.1474 92.8829C25.7091 88.8634 11.5898 68.2245 15.6093 46.7881C19.6288 25.3497 40.2677 11.2305 61.7041 15.2499C83.1425 19.2694 97.2617 39.9083 93.2423 61.3448Z" fill="white"/>
</g>
<path d="M56.408 49.5005C56.4077 49.1021 56.5129 48.7106 56.713 48.3655C56.9131 48.0204 57.201 47.7339 57.5477 47.5349C57.8944 47.3359 58.2876 47.2314 58.6878 47.2319C59.0879 47.2324 59.4809 47.338 59.827 47.5379C61.8902 46.7837 64.188 46.389 66.5772 46.389C72.9751 46.389 78.4626 49.2345 80.3175 53.3295C80.3017 54.299 78.9186 54.7505 78.3668 54.1555C76.8457 50.8664 72.041 48.4987 66.5772 48.4987C64.5914 48.4987 62.6855 48.8005 60.9597 49.3772C60.9766 49.6799 60.9324 49.983 60.8296 50.2685C60.7268 50.5539 60.5676 50.816 60.3614 51.0391C60.1551 51.2622 59.906 51.4419 59.6288 51.5675C59.3517 51.693 59.052 51.762 58.7476 51.7703C58.4432 51.7785 58.1402 51.7259 57.8565 51.6155C57.5729 51.5051 57.3144 51.3392 57.0962 51.1276C56.8781 50.916 56.7048 50.663 56.5866 50.3835C56.4684 50.104 56.4077 49.8038 56.408 49.5005ZM81.9897 57.939C81.9899 57.5772 81.9032 57.2206 81.7368 56.8989C81.5704 56.5773 81.3291 56.2999 81.0331 56.0901C80.7371 55.8802 80.395 55.7439 80.0353 55.6926C79.6756 55.6412 79.3088 55.6763 78.9655 55.7949C78.6222 55.9135 78.3124 56.1122 78.062 56.3743C77.8115 56.6365 77.6277 56.9545 77.5258 57.3018C77.4239 57.6491 77.407 58.0157 77.4764 58.3708C77.5458 58.726 77.6996 59.0595 77.9248 59.3434C77.1972 60.4573 76.0663 61.4662 74.6174 62.2764C72.3793 63.5259 69.5244 64.2145 66.5763 64.2145C64.0237 64.2145 61.573 63.7114 59.487 62.7577C58.0775 62.1128 56.9053 61.299 56.0293 60.3619C55.4485 60.025 54.1058 61.0995 54.5926 61.9185C57.2234 64.6433 61.6855 66.325 66.5763 66.325C69.8811 66.325 73.1051 65.541 75.6542 64.1165C77.5223 63.0727 78.9722 61.7208 79.8843 60.2C80.4567 60.1564 80.9914 59.8993 81.3817 59.4802C81.772 59.061 81.9891 58.5107 81.9897 57.939Z" fill="#89D96D"/>
<path d="M38.1093 62.1952C36.0321 59.5133 34.8555 55.7289 34.8555 51.6427C34.8555 47.9239 35.8405 44.4143 37.6287 41.7595C39.5029 38.9744 42.0389 37.4414 44.7681 37.4414C47.2557 37.4414 49.6273 38.7469 51.4471 41.1164C53.165 43.3547 54.2827 46.4075 54.5929 49.7142C53.8555 49.3084 53.0954 48.9453 52.3161 48.6265C51.4348 43.3704 48.3277 39.551 44.7681 39.551C42.7673 39.551 40.8561 40.7524 39.3869 42.9347C37.8308 45.2455 36.9732 48.3387 36.9732 51.6435C36.9732 55.2765 38.0513 58.7258 39.8817 61.027C40.388 60.9768 40.8966 61.0969 41.3264 61.3681C41.7562 61.6393 42.0824 62.046 42.2531 62.5233C42.4237 63.0007 42.4289 63.5212 42.2678 64.0018C42.1068 64.4824 41.7887 64.8955 41.3644 65.1751C40.9401 65.4548 40.434 65.5849 39.9268 65.5447C39.4195 65.5046 38.9404 65.2964 38.5659 64.9535C38.1913 64.6106 37.9428 64.1526 37.8601 63.6527C37.7773 63.1528 37.8651 62.6396 38.1093 62.1952ZM54.3152 51.0118C50.5965 48.8733 46.4473 48.0245 43.0133 48.6213C42.6507 48.2666 42.1793 48.0428 41.6742 47.9857C41.1691 47.9286 40.6594 48.0414 40.2261 48.3061C39.7928 48.5709 39.4609 48.9723 39.2833 49.4466C39.1056 49.9209 39.0924 50.4407 39.2457 50.9233C39.3991 51.4059 39.7101 51.8236 40.1294 52.1098C40.5487 52.3961 41.052 52.5344 41.5594 52.5028C42.0667 52.4712 42.5489 52.2715 42.9291 51.9355C43.3093 51.5995 43.5657 51.1465 43.6574 50.6487C46.5475 50.2234 50.0561 50.9987 53.2555 52.8388C57.163 55.0849 59.9266 58.5718 60.467 61.8049C61.1409 62.0849 61.8764 62.3247 62.6725 62.511C62.4651 58.311 59.2289 53.8354 54.3152 51.0118ZM54.8767 68.4943C52.8258 68.7542 50.499 68.4295 48.2109 67.5773C47.5536 68.083 46.8577 68.5573 46.1266 68.9957C48.5571 70.1069 51.1035 70.6905 53.4655 70.6905C54.0375 70.6905 54.5999 70.6564 55.1456 70.5873C57.9741 70.2294 60.2157 68.9589 61.5047 66.9954C60.7751 66.8194 60.0563 66.6017 59.3519 66.3435C58.3598 67.4959 56.8054 68.2502 54.8767 68.4943ZM52.6087 60.2063C53.1176 60.2008 53.6099 60.0259 54.0072 59.7093C54.4045 59.3927 54.6839 58.9528 54.8009 58.4597C54.9178 57.9665 54.8656 57.4486 54.6525 56.9885C54.4393 56.5284 54.0776 56.1526 53.625 55.921C53.1724 55.6895 52.655 55.6156 52.1552 55.711C51.6555 55.8065 51.2022 56.0658 50.8678 56.4477C50.5333 56.8296 50.3369 57.312 50.3099 57.8179C50.2829 58.3239 50.4268 58.8244 50.7187 59.2394C50.2855 60.2772 49.6502 61.3158 48.84 62.3054C47.587 63.8349 45.9394 65.2104 44.0757 66.2823C41.4739 67.7794 38.6717 68.5827 36.0945 68.5818C35.8256 68.5818 35.5585 68.573 35.2948 68.5555C32.6623 68.3797 30.6623 67.3323 29.6615 65.6077C27.8883 62.5487 29.6562 57.9479 33.7791 54.5643C33.6777 53.8114 33.6161 53.0538 33.5946 52.2945L33.4777 52.1327C30.7924 54.055 28.7274 56.5365 27.6616 59.1178C26.5325 61.853 26.5913 64.5323 27.8268 66.662C29.1914 69.0149 31.7932 70.4359 35.1525 70.6608C35.4609 70.6809 35.7729 70.6914 36.0874 70.6914C39.0355 70.6914 42.212 69.7902 45.1345 68.1093C48.6186 66.1073 51.2933 63.2478 52.6087 60.2063Z" fill="#999999"/>
<defs>
<filter id="filter0_d" x="0.925781" y="0.566406" width="107" height="107" filterUnits="userSpaceOnUse" color-interpolation-filters="sRGB">
<feFlood flood-opacity="0" result="BackgroundImageFix"/>
<feColorMatrix in="SourceAlpha" type="matrix" values="0 0 0 0 0 0 0 0 0 0 0 0 0 0 0 0 0 0 127 0"/>
<feOffset/>
<feGaussianBlur stdDeviation="7"/>
<feColorMatrix type="matrix" values="0 0 0 0 0 0 0 0 0 0 0 0 0 0 0 0 0 0 0.15 0"/>
<feBlend mode="normal" in2="BackgroundImageFix" result="effect1_dropShadow"/>
<feBlend mode="normal" in="SourceGraphic" in2="effect1_dropShadow" result="shape"/>
</filter>
</defs>
</svg>
