<svg width="59" height="36" viewBox="0 0 59 36" fill="none" xmlns="http://www.w3.org/2000/svg">
<path d="M31.408 13.5005C31.4077 13.1021 31.5129 12.7106 31.713 12.3655C31.9131 12.0204 32.201 11.7339 32.5477 11.5349C32.8944 11.3359 33.2876 11.2314 33.6878 11.2319C34.0879 11.2324 34.4809 11.338 34.827 11.5379C36.8902 10.7837 39.188 10.389 41.5772 10.389C47.9751 10.389 53.4626 13.2345 55.3175 17.3295C55.3017 18.299 53.9186 18.7505 53.3668 18.1555C51.8457 14.8664 47.041 12.4987 41.5772 12.4987C39.5914 12.4987 37.6855 12.8005 35.9597 13.3772C35.9766 13.6799 35.9324 13.983 35.8296 14.2685C35.7268 14.5539 35.5676 14.816 35.3614 15.0391C35.1551 15.2622 34.906 15.4419 34.6288 15.5675C34.3517 15.693 34.052 15.762 33.7476 15.7703C33.4432 15.7785 33.1402 15.7259 32.8565 15.6155C32.5729 15.5051 32.3144 15.3392 32.0962 15.1276C31.8781 14.916 31.7048 14.663 31.5866 14.3835C31.4684 14.104 31.4077 13.8038 31.408 13.5005ZM56.9897 21.939C56.9899 21.5772 56.9032 21.2206 56.7368 20.8989C56.5704 20.5773 56.3291 20.2999 56.0331 20.0901C55.7371 19.8802 55.395 19.7439 55.0353 19.6926C54.6756 19.6412 54.3088 19.6763 53.9655 19.7949C53.6222 19.9135 53.3124 20.1122 53.062 20.3743C52.8115 20.6365 52.6277 20.9545 52.5258 21.3018C52.4239 21.6491 52.407 22.0157 52.4764 22.3708C52.5458 22.726 52.6996 23.0595 52.9248 23.3434C52.1972 24.4573 51.0663 25.4662 49.6174 26.2764C47.3793 27.5259 44.5244 28.2145 41.5763 28.2145C39.0237 28.2145 36.573 27.7114 34.487 26.7577C33.0775 26.1128 31.9053 25.299 31.0293 24.3619C30.4485 24.025 29.1058 25.0995 29.5926 25.9185C32.2234 28.6433 36.6855 30.325 41.5763 30.325C44.8811 30.325 48.1051 29.541 50.6542 28.1165C52.5223 27.0727 53.9722 25.7208 54.8843 24.2C55.4567 24.1564 55.9914 23.8993 56.3817 23.4802C56.772 23.061 56.9891 22.5107 56.9897 21.939Z" fill="#89D96D"/>
<path d="M13.1093 26.1952C11.0321 23.5133 9.85549 19.7289 9.85549 15.6427C9.85549 11.9239 10.8405 8.41428 12.6287 5.75953C14.5029 2.97441 17.0389 1.44141 19.7681 1.44141C22.2557 1.44141 24.6273 2.74691 26.4471 5.11641C28.165 7.35466 29.2827 10.4075 29.5929 13.7142C28.8555 13.3084 28.0954 12.9453 27.3161 12.6265C26.4348 7.37041 23.3277 3.55103 19.7681 3.55103C17.7673 3.55103 15.8561 4.75241 14.3869 6.93466C12.8308 9.24553 11.9732 12.3387 11.9732 15.6435C11.9732 19.2765 13.0513 22.7258 14.8817 25.027C15.388 24.9768 15.8966 25.0969 16.3264 25.3681C16.7562 25.6393 17.0824 26.046 17.2531 26.5233C17.4237 27.0007 17.4289 27.5212 17.2678 28.0018C17.1068 28.4824 16.7887 28.8955 16.3644 29.1751C15.9401 29.4548 15.434 29.5849 14.9268 29.5447C14.4195 29.5046 13.9404 29.2964 13.5659 28.9535C13.1913 28.6106 12.9428 28.1526 12.8601 27.6527C12.7773 27.1528 12.8651 26.6396 13.1093 26.1952ZM29.3152 15.0118C25.5965 12.8733 21.4473 12.0245 18.0133 12.6213C17.6507 12.2666 17.1793 12.0428 16.6742 11.9857C16.1691 11.9286 15.6594 12.0414 15.2261 12.3061C14.7928 12.5709 14.4609 12.9723 14.2833 13.4466C14.1056 13.9209 14.0924 14.4407 14.2457 14.9233C14.3991 15.4059 14.7101 15.8236 15.1294 16.1098C15.5487 16.3961 16.052 16.5344 16.5594 16.5028C17.0667 16.4712 17.5489 16.2715 17.9291 15.9355C18.3093 15.5995 18.5657 15.1465 18.6574 14.6487C21.5475 14.2234 25.0561 14.9987 28.2555 16.8388C32.163 19.0849 34.9266 22.5718 35.467 25.8049C36.1409 26.0849 36.8764 26.3247 37.6725 26.511C37.4651 22.311 34.2289 17.8354 29.3152 15.0118ZM29.8767 32.4943C27.8258 32.7542 25.499 32.4295 23.2109 31.5773C22.5536 32.083 21.8577 32.5573 21.1266 32.9957C23.5571 34.1069 26.1035 34.6905 28.4655 34.6905C29.0375 34.6905 29.5999 34.6564 30.1456 34.5873C32.9741 34.2294 35.2157 32.9589 36.5047 30.9954C35.7751 30.8194 35.0563 30.6017 34.3519 30.3435C33.3598 31.4959 31.8054 32.2502 29.8767 32.4943ZM27.6087 24.2063C28.1176 24.2008 28.6099 24.0259 29.0072 23.7093C29.4045 23.3927 29.6839 22.9528 29.8009 22.4597C29.9178 21.9665 29.8656 21.4486 29.6525 20.9885C29.4393 20.5284 29.0776 20.1526 28.625 19.921C28.1724 19.6895 27.655 19.6156 27.1552 19.711C26.6555 19.8065 26.2022 20.0658 25.8678 20.4477C25.5333 20.8296 25.3369 21.312 25.3099 21.8179C25.2829 22.3239 25.4268 22.8244 25.7187 23.2394C25.2855 24.2772 24.6502 25.3158 23.84 26.3054C22.587 27.8349 20.9394 29.2104 19.0757 30.2823C16.4739 31.7794 13.6717 32.5827 11.0945 32.5818C10.8256 32.5818 10.5585 32.573 10.2948 32.5555C7.66226 32.3797 5.66234 31.3323 4.6615 29.6077C2.88828 26.5487 4.65623 21.9479 8.77909 18.5643C8.67771 17.8114 8.61612 17.0538 8.59456 16.2945L8.47769 16.1327C5.79239 18.055 3.72744 20.5365 2.66158 23.1178C1.53245 25.853 1.59132 28.5323 2.82677 30.662C4.1914 33.0149 6.79323 34.4359 10.1525 34.6608C10.4609 34.6809 10.7729 34.6914 11.0874 34.6914C14.0355 34.6914 17.212 33.7902 20.1345 32.1093C23.6186 30.1073 26.2933 27.2478 27.6087 24.2063Z" fill="#999999"/>
</svg>
