<svg width="22" height="22" viewBox="0 0 22 22" fill="none" xmlns="http://www.w3.org/2000/svg">
<path fill-rule="evenodd" clip-rule="evenodd" d="M4.39274 14.2502C5.21321 13.4297 6.32601 12.9688 7.48633 12.9688H14.4863C15.6467 12.9688 16.7594 13.4297 17.5799 14.2502C18.4004 15.0706 18.8613 16.1834 18.8613 17.3438V19.0938C18.8613 19.577 18.4696 19.9688 17.9863 19.9688C17.5031 19.9688 17.1113 19.577 17.1113 19.0938V17.3438C17.1113 16.6476 16.8348 15.9799 16.3425 15.4876C15.8502 14.9953 15.1825 14.7188 14.4863 14.7188H7.48633C6.79014 14.7188 6.12246 14.9953 5.63017 15.4876C5.13789 15.9799 4.86133 16.6476 4.86133 17.3438V19.0938C4.86133 19.577 4.46958 19.9688 3.98633 19.9688C3.50308 19.9688 3.11133 19.577 3.11133 19.0938V17.3438C3.11133 16.1834 3.57226 15.0706 4.39274 14.2502Z" fill="black"/>
<path fill-rule="evenodd" clip-rule="evenodd" d="M10.9863 4.21875C9.53658 4.21875 8.36133 5.394 8.36133 6.84375C8.36133 8.2935 9.53658 9.46875 10.9863 9.46875C12.4361 9.46875 13.6113 8.2935 13.6113 6.84375C13.6113 5.394 12.4361 4.21875 10.9863 4.21875ZM6.61133 6.84375C6.61133 4.4275 8.57008 2.46875 10.9863 2.46875C13.4026 2.46875 15.3613 4.4275 15.3613 6.84375C15.3613 9.26 13.4026 11.2188 10.9863 11.2188C8.57008 11.2188 6.61133 9.26 6.61133 6.84375Z" fill="black"/>
</svg>
